Coordinates
version=1
nRows=12
nColumns=33
inDegrees=yes

Units are S.I. units (second, meters, Newtons, ...)
Angles are in degrees.

endheader
time	ground_thorax_rot_x	ground_thorax_rot_y	ground_thorax_rot_z	ground_thorax_tx	ground_thorax_ty	ground_thorax_tz	clav_prot_r	clav_elev_r	scapula_abduction_r	scapula_elevation_r	scapula_upward_rot_r	scapula_winging_r	shoulder_elv_r	plane_of_elev_r	axial_rot_r	elbow_flexion_r	pro_sup_r	wrist_flex_r	wrist_dev_r	clav_prot_l	clav_elev_l	scapula_abduction_l	scapula_elevation_l	scapula_upward_rot_l	scapula_winging_l	shoulder_elv_l	plane_of_elev_l	axial_rot_l	elbow_flexion_l	pro_sup_l	wrist_flex_l	wrist_dev_l
      5.93000000	    -31.27352434	    -25.85740687	     34.57710300	     39.01252395	    762.59272190	    -29.36287882	     25.24489979	    -45.00000000	     35.64060761	    -45.00000000	    -45.00000000	  -4051.38393907	  -1008.25873606	     19.00351666	   -149.06351024	   1801.25168727	   -191.29108455	     11.36570383	     12.63666327	      2.90946807	     26.65898151	    -25.43769451	    -45.00000000	    -45.00000000	  -2810.58770087	  -1348.68597614	     16.19322063	   -179.99999979	    362.95648921	   -178.40593883	     11.90755202	    -12.62825002
      5.94000000	    -31.46539282	    -25.76507473	     34.38888565	     37.25021899	    762.84919816	    -29.38895860	     25.25305623	    -45.00000000	     35.59865715	    -45.00000000	    -45.00000000	  -4051.51971226	  -1008.23395076	     19.04264041	   -149.12762415	   1801.21394633	   -191.05300392	     11.43354180	     12.70246198	      2.88782764	     26.70713173	    -25.47398073	    -45.00000000	    -45.00000000	  -2810.43260519	  -1348.61218448	     16.23862922	   -179.99999979	    362.96690895	   -178.17604128	     11.89330714	    -12.69024897
      5.95000000	    -31.64866860	    -25.67611800	     34.15472950	     35.39463369	    763.14424524	    -29.44064899	     25.24367840	    -45.00000000	     35.57776004	    -45.00000000	    -45.00000000	  -4051.60423598	  -1008.18333701	     19.08176032	   -149.19127298	   1801.18456310	   -190.79769522	     11.51311153	     12.75988417	      2.90123865	     26.74347864	    -25.50958363	    -45.00000000	    -45.00000000	  -2810.27638636	  -1348.55141647	     16.26781168	   -179.99999979	    362.94406112	   -177.93800870	     11.88153076	    -12.76154835
      5.96000000	    -31.82893783	    -25.56807814	     33.91452121	     33.43713449	    763.48236625	    -29.52044505	     25.21905304	    -45.00000000	     35.54237301	    -45.00000000	    -45.00000000	  -4051.68119385	  -1008.14066639	     19.11081902	   -149.27184241	   1801.18965066	   -190.54853230	     11.58850393	     12.81921470	      2.89410387	     26.79162833	    -25.56733744	    -45.00000000	    -45.00000000	  -2810.15114129	  -1348.50131118	     16.29159448	   -179.99999979	    362.99043547	   -177.68757689	     11.89412755	    -12.81903820
      5.97000000	    -32.06065148	    -25.44594844	     33.63859584	     31.38721551	    763.86597092	    -29.63025091	     25.20159063	    -45.00000000	     35.49240827	    -45.00000000	    -45.00000000	  -4051.79320857	  -1008.09065562	     19.15651124	   -149.36272472	   1801.14035530	   -190.32046858	     11.67693040	     12.90899370	      2.88646859	     26.84338556	    -25.61432619	    -45.00000000	    -45.00000000	  -2809.98812524	  -1348.38989460	     16.35850303	   -179.99999979	    362.97350493	   -177.44271154	     11.91091863	    -12.89587870
      5.98000000	    -32.30436198	    -25.30931317	     33.27723471	     29.23290689	    764.30052853	    -29.77306723	     25.17480448	    -45.00000000	     35.47461130	    -45.00000000	    -45.00000000	  -4051.88905173	  -1008.08037863	     19.21517490	   -149.48358106	   1801.04115322	   -190.12560188	     11.77541893	     13.00579098	      2.92187414	     26.87540511	    -25.66579622	    -45.00000000	    -45.00000000	  -2809.83217627	  -1348.30925137	     16.38403001	   -179.99999979	    362.91096658	   -177.20800445	     11.92212082	    -12.99214448
      5.99000000	    -32.48593850	    -25.21870840	     33.04027608	     26.97888128	    764.78885774	    -29.95122370	     25.15075655	    -45.00000000	     35.48846938	    -45.00000000	    -45.00000000	  -4051.96786636	  -1008.02751251	     19.19226810	   -149.65143894	   1801.06002711	   -189.96288412	     11.82985934	     13.08658222	      2.97616375	     26.90903881	    -25.74912910	    -45.00000000	    -45.00000000	  -2809.65806803	  -1348.28481921	     16.34453863	   -179.99999979	    362.80518392	   -176.97678433	     11.92409840	    -13.10272753
      6.00000000	    -32.71225478	    -25.10144629	     32.71981781	     24.63386303	    765.33216731	    -30.16668268	     25.12326860	    -45.00000000	     35.47154708	    -45.00000000	    -45.00000000	  -4052.04606440	  -1007.98101166	     19.22263823	   -149.77686084	   1801.02194213	   -189.83231847	     11.90773087	     13.18515603	      2.96414053	     26.95687888	    -25.83033721	    -45.00000000	    -45.00000000	  -2809.49877705	  -1348.20972998	     16.35240417	   -179.99999979	    362.80769387	   -176.73880740	     11.95080928	    -13.18537215
      6.01000000	    -33.03273654	    -24.85445353	     32.21793809	     22.19412800	    765.93479192	    -30.42115188	     25.06558771	    -45.00000000	     35.41101093	    -45.00000000	    -45.00000000	  -4052.13482760	  -1007.98194025	     19.28965710	   -149.93080966	   1800.85871168	   -189.74380433	     12.04545747	     13.23672470	      2.99739264	     26.97976716	    -26.00559265	    -45.00000000	    -45.00000000	  -2809.40729845	  -1348.11835289	     16.31353141	   -179.99999979	    362.78749346	   -176.52839272	     11.96142533	    -13.28655462
      6.02000000	    -33.19082061	    -24.78594483	     31.97537966	     19.66412084	    766.59971305	    -30.71424182	     25.04944741	    -45.00000000	     35.41600555	    -45.00000000	    -45.00000000	  -4052.20849883	  -1007.90611304	     19.29355366	   -150.16205694	   1800.95536956	   -189.67871396	     12.01383189	     13.42477896	      3.07735881	     27.03633962	    -25.99216807	    -45.00000000	    -45.00000000	  -2809.17420285	  -1348.04324528	     16.39709792	   -179.99999979	    362.69296260	   -176.33158023	     11.97188473	    -13.36743182
      6.03000000	    -33.48074510	    -24.54785563	     31.52723565	     17.05195347	    767.33005876	    -31.04214146	     24.99182130	    -45.00000000	     35.35923235	    -45.00000000	    -45.00000000	  -4052.30819376	  -1007.86305325	     19.31281189	   -150.27989298	   1800.81370351	   -189.64039314	     12.14682005	     13.45395622	      3.09072105	     27.05634987	    -26.16411154	    -45.00000000	    -45.00000000	  -2809.08771016	  -1347.97298620	     16.34007643	   -179.99999979	    362.65135718	   -176.14869530	     11.96983007	    -13.47912708
      6.04000000	    -33.82843859	    -24.24253562	     30.95371231	     14.35729155	    768.13206137	    -31.39911978	     24.93787584	    -45.00000000	     35.37702632	    -45.00000000	    -45.00000000	  -4052.43588434	  -1007.87967362	     19.38127010	   -150.48812604	   1800.65424403	   -189.63553123	     12.22642130	     13.60358032	      3.09138438	     27.09158739	    -26.28170638	    -45.00000000	    -45.00000000	  -2808.92104209	  -1347.81598482	     16.42676332	   -179.99999979	    362.50922433	   -175.99383713	     11.97548286	    -13.60405427
